<svg xmlns="http://www.w3.org/2000/svg" viewBox="0 0 64 64" role="img" aria-label="Discord">
  <rect width="64" height="64" rx="14" fill="#5865F2"/>
  <path d="M46 20.5a36 36 0 0 0-8.8-2.7l-.42.86a32 32 0 0 1 7.8 2.28c-2.34-1.08-4.7-1.74-7.06-2.08a26 26 0 0 0-1.9-.23 26 26 0 0 0-1.9.23C29.34 19.15 26.98 19.8 24.64 20.88a32 32 0 0 1 7.8-2.28l-.43-.86A36 36 0 0 0 23.2 20.5a33.5 33.5 0 0 0-7.2 23.2c2.96 3.37 7.2 3.92 11.6 4.08l1.46-1.92c-2.5-.74-5.03-1.85-7.2-3.7 2.7 2.03 5.9 3.08 9.14 3.23 3.24-.15 6.44-1.2 9.14-3.22-2.17 1.85-4.7 2.95-7.2 3.7l1.47 1.9c4.38-.15 8.62-.7 11.58-4.07A33.5 33.5 0 0 0 46 20.5Zm-17 17.8c-1.32 0-2.4-1.32-2.4-2.94 0-1.62 1.08-2.94 2.4-2.94s2.4 1.32 2.4 2.94c0 1.62-1.08 2.94-2.4 2.94Zm9.98 0c-1.32 0-2.4-1.32-2.4-2.94 0-1.62 1.08-2.94 2.4-2.94s2.4 1.32 2.4 2.94c0 1.62-1.08 2.94-2.4 2.94Z" fill="#fff"/>
</svg>
