<svg width="200" height="200" viewBox="0 0 200 200" xmlns="http://www.w3.org/2000/svg" role="img" aria-labelledby="title desc">
  <title id="title">Lenovo Legion headset illustrasjon</title>
  <desc id="desc">Stilisert mørk blå gaming-headset med cyan detaljer.</desc>
  <defs>
    <linearGradient id="band" x1="0%" y1="0%" x2="100%" y2="100%">
      <stop offset="0%" stop-color="#1B2A68" />
      <stop offset="100%" stop-color="#0F1A3F" />
    </linearGradient>
    <linearGradient id="inner" x1="0%" y1="0%" x2="0%" y2="100%">
      <stop offset="0%" stop-color="#0B86F9" />
      <stop offset="100%" stop-color="#14A0FF" />
    </linearGradient>
  </defs>
  <rect width="200" height="200" rx="32" fill="#060B28" />
  <g transform="translate(30 40)">
    <path d="M70 12c-24 0-44 20-44 44v30c0 12 10 22 22 22h12v-24H48c-4 0-8-4-8-8V54c0-17 13-30 30-30s30 13 30 30v22c0 4-4 8-8 8h-12v24h12c12 0 22-10 22-22V56c0-24-20-44-44-44z" fill="url(#band)" />
    <rect x="58" y="86" width="24" height="56" rx="12" fill="#0B132F" />
    <rect x="26" y="70" width="36" height="36" rx="18" fill="#0A1844" stroke="#0B86F9" stroke-width="4" />
    <rect x="88" y="70" width="36" height="36" rx="18" fill="#0A1844" stroke="#0B86F9" stroke-width="4" />
    <rect x="96" y="112" width="46" height="10" rx="5" fill="url(#inner)" />
  </g>
</svg>
