<svg width="180" height="180" viewBox="0 0 180 180" fill="none" xmlns="http://www.w3.org/2000/svg">
  <rect width="180" height="180" rx="36" fill="#041149"/>
  <g filter="url(#shadow)">
    <path d="M90 30C62 30 40 54 40 82C40 110 62 134 90 134C118 134 140 110 140 82C140 54 118 30 90 30Z" fill="#0B1230"/>
    <path d="M64 74C64 60.7452 77.4315 50 94 50C110.569 50 124 60.7452 124 74V104C124 111.732 117.732 118 110 118H78C70.268 118 64 111.732 64 104V74Z" fill="#13A0F9"/>
    <path d="M90 42C112 42 130 60 130 82C130 94 122 111 118 119C114 127 107 134 98 134H82C73 134 66 127 62 119C58 111 50 94 50 82C50 60 68 42 90 42Z" fill="#FF2F9C" opacity="0.6"/>
    <circle cx="74" cy="78" r="9" fill="white"/>
    <circle cx="110" cy="78" r="9" fill="white"/>
    <circle cx="74" cy="78" r="3.5" fill="#041149"/>
    <circle cx="110" cy="78" r="3.5" fill="#041149"/>
    <path d="M72 98C72 108 80 116 90 116C100 116 108 108 108 98" stroke="white" stroke-width="8" stroke-linecap="round"/>
  </g>
  <defs>
    <filter id="shadow" x="30" y="20" width="120" height="128" filterUnits="userSpaceOnUse" color-interpolation-filters="sRGB">
      <feDropShadow dx="0" dy="10" stdDeviation="12" flood-color="#13A0F9" flood-opacity="0.4"/>
    </filter>
  </defs>
</svg>
