<svg width="200" height="200" viewBox="0 0 200 200" xmlns="http://www.w3.org/2000/svg" role="img" aria-labelledby="title desc">
  <title id="title">Philips Hue startpakke illustrasjon</title>
  <desc id="desc">Lilla smartpærer og hub med myk gradient bakgrunn.</desc>
  <defs>
    <radialGradient id="bg" cx="50%" cy="50%" r="70%">
      <stop offset="0%" stop-color="#FF83CA" stop-opacity="0.8" />
      <stop offset="100%" stop-color="#2C0F40" stop-opacity="0.6" />
    </radialGradient>
    <linearGradient id="bulb" x1="0%" y1="0%" x2="0%" y2="100%">
      <stop offset="0%" stop-color="#FEE0FF" />
      <stop offset="100%" stop-color="#BC4BFF" />
    </linearGradient>
  </defs>
  <rect width="200" height="200" rx="32" fill="#160725" />
  <circle cx="100" cy="100" r="88" fill="url(#bg)" />
  <g transform="translate(44 58)">
    <rect x="20" y="54" width="72" height="48" rx="16" fill="#201137" stroke="#6C3BFF" stroke-width="3" />
    <circle cx="56" cy="78" r="10" fill="#6C3BFF" />
    <circle cx="56" cy="78" r="4" fill="#FEE0FF" />
    <g transform="translate(0 -6)">
      <path d="M22 40c0-16 12-28 28-28s28 12 28 28c0 8-4 13-9 18l-2 10H33l-2-10c-5-5-9-10-9-18z" fill="url(#bulb)" stroke="#EEE0FF" stroke-width="3" />
      <rect x="38" y="70" width="24" height="8" rx="4" fill="#FDF7FF" />
    </g>
    <g transform="translate(78 -2)">
      <path d="M18 42c0-13 10-22 22-22s22 9 22 22c0 6-3 10-7 14l-1.6 8h-26.8l-1.6-8c-4-4-7-8-7-14z" fill="url(#bulb)" stroke="#EEE0FF" stroke-width="3" />
      <rect x="32" y="66" width="20" height="7" rx="3.5" fill="#FDF7FF" />
    </g>
  </g>
</svg>
