<svg xmlns="http://www.w3.org/2000/svg" width="48" height="48" viewBox="0 0 48 48" role="img" aria-labelledby="title">
  <title id="title">Discord</title>
  <rect width="48" height="48" rx="12" fill="#5865f2" />
  <path d="M17 16c2-.8 3.4-1.2 5-1.3l.4.8a17 17 0 0 1 3.2 0l.4-.8c1.6.1 3 .5 5 1.3 1.3 2 2.1 4.3 2.5 6.6-.2.3-.5.6-.8.9-1.1-1-2.2-1.6-3.3-1.9l-.8 1.4a9.3 9.3 0 0 1-8 0l-.7-1.4c-1.2.3-2.3 1-3.4 1.9-.3-.3-.6-.6-.8-.9.4-2.3 1.2-4.7 2.7-6.6zm2.6 3.8c-.7 0-1.2.6-1.2 1.3 0 .8.5 1.4 1.2 1.4s1.2-.6 1.2-1.4-.5-1.3-1.2-1.3zm8.8 0c-.7 0-1.2.6-1.2 1.3 0 .8.5 1.4 1.2 1.4s1.2-.6 1.2-1.4-.5-1.3-1.2-1.3z" fill="#fff" />
</svg>
