<svg xmlns="http://www.w3.org/2000/svg" width="48" height="48" viewBox="0 0 48 48" role="img" aria-labelledby="title">
  <title id="title">TikTok</title>
  <rect width="48" height="48" rx="12" fill="#000" />
  <path d="M27 10h5c.2 2.6 1.9 4.7 4.7 5v5.2c-2.4-.1-4.3-.8-6-1.9v9.2c0 4.9-3.9 8.8-9.2 8.8-4.2 0-7.5-3-7.5-6.9 0-4.4 3.9-7 8.2-7 .5 0 1 .1 1.5.2V18H27zm-6.6 14.5c-1.6 0-2.6 1-2.6 2.4s1 2.4 2.6 2.4c1.8 0 3.1-1.3 3.1-3.2v-2.6c-.8-.3-1.7-.5-2.5-.5h-.6z" fill="#fff" />
  <path d="M20.3 24.5c2.1 0 3.9.8 5.2 2.3v2.8c0 3-2.4 5.1-5.4 5.1-2.6 0-4.6-1.5-5-3.8.9.8 2 .9 2.7.9 1.6 0 2.7-.9 2.7-2 0-1-.9-1.9-2-1.9-1.5 0-2.6.5-3.4 1.4V26c1.1-.9 2.8-1.5 5.2-1.5z" fill="#25f4ee" opacity=".85" />
  <path d="M25.5 14.2c1.1 2.3 3 3.7 5.2 4v4c-1.8-.1-3.4-.7-5-1.8z" fill="#fe2c55" />
</svg>
