<svg xmlns="http://www.w3.org/2000/svg" width="48" height="48" viewBox="0 0 48 48" role="img" aria-labelledby="title">
  <title id="title">YouTube</title>
  <rect width="48" height="48" rx="12" fill="#ff0000" />
  <path d="M35 24c0 3.7-.3 5.8-.7 6.7-.4.9-1.1 1.6-2 2-1 .4-3 .3-6.7.3h-3c-3.8 0-5.8.1-6.8-.3a3.6 3.6 0 0 1-2-2C13 29.8 13 27.7 13 24s0-5.8.8-6.7c.4-.9 1.1-1.6 2-2 1-.4 3-.3 6.8-.3h3c3.7 0 5.7-.1 6.7.3.9.4 1.6 1.1 2 2 .4.9.7 3 .7 6.7z" fill="#fff" />
  <path d="M21 19.5 28.5 24 21 28.5z" fill="#ff0000" />
</svg>
